<svg preserveAspectRatio="none" overflow="visible" style="display: block;" width="129.657" height="79.1127" viewBox="0 0 129.657 79.1127" fill="none" xmlns="http://www.w3.org/2000/svg">
<g id="Group 563">
<path id="Vector" d="M36.9102 68.0007V60.1628H40.135C40.8292 60.1628 41.4227 60.2747 41.9153 60.4987C42.4155 60.7226 42.7999 61.0436 43.0686 61.4616C43.3374 61.8796 43.4717 62.376 43.4717 62.9508C43.4717 63.5256 43.3374 64.022 43.0686 64.44C42.7999 64.8581 42.4155 65.179 41.9153 65.403C41.4227 65.6269 40.8292 65.7389 40.135 65.7389H37.7164L38.3659 65.0559V68.0007H36.9102ZM38.3659 65.2126L37.7164 64.5072H40.0678C40.7098 64.5072 41.1913 64.3729 41.5122 64.1041C41.8407 63.8279 42.0049 63.4435 42.0049 62.9508C42.0049 62.4507 41.8407 62.0663 41.5122 61.7975C41.1913 61.5288 40.7098 61.3944 40.0678 61.3944H37.7164L38.3659 60.6778V65.2126ZM43.4232 68.0007L46.9502 60.1628H48.3835L51.9217 68.0007H50.3989L47.3645 60.9354H47.9468L44.9236 68.0007H43.4232ZM45.0467 66.1868L45.4386 65.0447H49.6711L50.063 66.1868H45.0467ZM52.9185 68.0007V60.1628H56.1433C56.8375 60.1628 57.431 60.2747 57.9236 60.4987C58.4238 60.7226 58.8082 61.0436 59.0769 61.4616C59.3457 61.8796 59.48 62.376 59.48 62.9508C59.48 63.5256 59.3457 64.022 59.0769 64.44C58.8082 64.8506 58.4238 65.1678 57.9236 65.3918C57.431 65.6083 56.8375 65.7165 56.1433 65.7165H53.7247L54.3742 65.0559V68.0007H52.9185ZM58.0468 68.0007L56.0649 65.1566H57.6213L59.6144 68.0007H58.0468ZM54.3742 65.2126L53.7247 64.5184H56.0761C56.7181 64.5184 57.1996 64.3803 57.5205 64.1041C57.849 63.8279 58.0132 63.4435 58.0132 62.9508C58.0132 62.4507 57.849 62.0663 57.5205 61.7975C57.1996 61.5288 56.7181 61.3944 56.0761 61.3944H53.7247L54.3742 60.6778V65.2126ZM62.5892 68.0007V61.3944H59.9915V60.1628H66.6426V61.3944H64.0448V68.0007H62.5892ZM67.735 68.0007V60.1628H68.9331L73.8486 66.198H73.2551V60.1628H74.6995V68.0007H73.5015L68.5859 61.9655H69.1794V68.0007H67.735ZM78.1434 63.4211H82.04V64.6192H78.1434V63.4211ZM78.2554 66.7802H82.6782V68.0007H76.7998V60.1628H82.5215V61.3832H78.2554V66.7802ZM84.3009 68.0007V60.1628H87.5257C88.2199 60.1628 88.8134 60.2747 89.306 60.4987C89.8062 60.7226 90.1906 61.0436 90.4593 61.4616C90.728 61.8796 90.8624 62.376 90.8624 62.9508C90.8624 63.5256 90.728 64.022 90.4593 64.44C90.1906 64.8506 89.8062 65.1678 89.306 65.3918C88.8134 65.6083 88.2199 65.7165 87.5257 65.7165H85.1071L85.7566 65.0559V68.0007H84.3009ZM89.4292 68.0007L87.4473 65.1566H89.0037L90.9968 68.0007H89.4292ZM85.7566 65.2126L85.1071 64.5184H87.4585C88.1005 64.5184 88.5819 64.3803 88.9029 64.1041C89.2314 63.8279 89.3956 63.4435 89.3956 62.9508C89.3956 62.4507 89.2314 62.0663 88.9029 61.7975C88.5819 61.5288 88.1005 61.3944 87.4585 61.3944H85.1071L85.7566 60.6778V65.2126ZM94.9207 68.1127C94.3086 68.1127 93.7226 68.0268 93.1628 67.8551C92.6029 67.676 92.1588 67.4483 91.8303 67.1721L92.3342 66.0412C92.6477 66.2875 93.0359 66.4928 93.4987 66.6571C93.9615 66.8213 94.4355 66.9034 94.9207 66.9034C95.3313 66.9034 95.6635 66.8586 95.9173 66.769C96.1711 66.6794 96.3577 66.56 96.4771 66.4107C96.5966 66.254 96.6563 66.0785 96.6563 65.8845C96.6563 65.6456 96.5704 65.4552 96.3987 65.3134C96.2271 65.1641 96.0031 65.0484 95.7269 64.9663C95.4582 64.8767 95.1559 64.7946 94.82 64.72C94.4915 64.6453 94.1593 64.5595 93.8234 64.4624C93.495 64.3579 93.1927 64.2273 92.9165 64.0705C92.6477 63.9063 92.4275 63.6898 92.2558 63.4211C92.0841 63.1524 91.9983 62.809 91.9983 62.391C91.9983 61.9655 92.1103 61.5773 92.3342 61.2265C92.5656 60.8682 92.9127 60.5845 93.3755 60.3755C93.8458 60.159 94.4393 60.0508 95.1559 60.0508C95.6261 60.0508 96.0927 60.1105 96.5555 60.2299C97.0183 60.3494 97.4214 60.5211 97.7648 60.745L97.3057 61.8759C96.9549 61.6669 96.5928 61.5139 96.2196 61.4168C95.8464 61.3123 95.4881 61.2601 95.1447 61.2601C94.7416 61.2601 94.4131 61.3086 94.1593 61.4056C93.913 61.5027 93.7301 61.6296 93.6107 61.7863C93.4987 61.9431 93.4427 62.1222 93.4427 62.3238C93.4427 62.5627 93.5248 62.7567 93.6891 62.906C93.8607 63.0479 94.081 63.1598 94.3497 63.2419C94.6259 63.3241 94.9319 63.4062 95.2678 63.4883C95.6038 63.5629 95.9359 63.6488 96.2644 63.7458C96.6003 63.8429 96.9026 63.9698 97.1713 64.1265C97.4475 64.2833 97.6677 64.496 97.832 64.7647C98.0037 65.0335 98.0895 65.3731 98.0895 65.7837C98.0895 66.2017 97.9738 66.5899 97.7424 66.9482C97.5185 67.299 97.1713 67.5827 96.7011 67.7992C96.2308 68.0082 95.6373 68.1127 94.9207 68.1127ZM105.042 60.1628H106.497V68.0007H105.042V60.1628ZM100.988 68.0007H99.5325V60.1628H100.988V68.0007ZM105.153 64.6416H100.865V63.3987H105.153V64.6416ZM108.597 68.0007V60.1628H110.053V68.0007H108.597ZM112.173 68.0007V60.1628H115.398C116.092 60.1628 116.685 60.2747 117.178 60.4987C117.678 60.7226 118.063 61.0436 118.331 61.4616C118.6 61.8796 118.734 62.376 118.734 62.9508C118.734 63.5256 118.6 64.022 118.331 64.44C118.063 64.8581 117.678 65.179 117.178 65.403C116.685 65.6269 116.092 65.7389 115.398 65.7389H112.979L113.629 65.0559V68.0007H112.173ZM113.629 65.2126L112.979 64.5072H115.331C115.973 64.5072 116.454 64.3729 116.775 64.1041C117.103 63.8279 117.268 63.4435 117.268 62.9508C117.268 62.4507 117.103 62.0663 116.775 61.7975C116.454 61.5288 115.973 61.3944 115.331 61.3944H112.979L113.629 60.6778V65.2126ZM38.2427 74.7682H42.1505V75.9999H38.2427V74.7682ZM38.3659 79.0007H36.9102V71.1628H42.6319V72.3832H38.3659V79.0007ZM47.6248 79.1127C47.0127 79.1127 46.4491 79.0119 45.934 78.8103C45.419 78.6088 44.9711 78.3289 44.5904 77.9706C44.2097 77.6048 43.9148 77.1793 43.7058 76.6941C43.4968 76.2014 43.3923 75.664 43.3923 75.0817C43.3923 74.4995 43.4968 73.9658 43.7058 73.4805C43.9148 72.9879 44.2097 72.5624 44.5904 72.2041C44.9711 71.8383 45.419 71.5547 45.934 71.3531C46.4491 71.1516 47.0089 71.0508 47.6136 71.0508C48.2257 71.0508 48.7855 71.1516 49.2931 71.3531C49.8082 71.5547 50.2561 71.8383 50.6368 72.2041C51.0175 72.5624 51.3123 72.9879 51.5214 73.4805C51.7304 73.9658 51.8349 74.4995 51.8349 75.0817C51.8349 75.664 51.7304 76.2014 51.5214 76.6941C51.3123 77.1868 51.0175 77.6123 50.6368 77.9706C50.2561 78.3289 49.8082 78.6088 49.2931 78.8103C48.7855 79.0119 48.2294 79.1127 47.6248 79.1127ZM47.6136 77.8362C48.0092 77.8362 48.375 77.769 48.7109 77.6347C49.0468 77.5003 49.3379 77.3099 49.5843 77.0636C49.8306 76.8098 50.021 76.5187 50.1553 76.1902C50.2971 75.8543 50.3681 75.4848 50.3681 75.0817C50.3681 74.6786 50.2971 74.3129 50.1553 73.9844C50.021 73.6485 49.8306 73.3574 49.5843 73.111C49.3379 72.8572 49.0468 72.6632 48.7109 72.5288C48.375 72.3944 48.0092 72.3273 47.6136 72.3273C47.218 72.3273 46.8522 72.3944 46.5163 72.5288C46.1878 72.6632 45.8967 72.8572 45.6429 73.111C45.3966 73.3574 45.2025 73.6485 45.0607 73.9844C44.9263 74.3129 44.8591 74.6786 44.8591 75.0817C44.8591 75.4774 44.9263 75.8431 45.0607 76.179C45.2025 76.515 45.3966 76.8098 45.6429 77.0636C45.8892 77.3099 46.1804 77.5003 46.5163 77.6347C46.8522 77.769 47.218 77.8362 47.6136 77.8362ZM53.3778 79.0007V71.1628H56.6026C57.2968 71.1628 57.8902 71.2747 58.3829 71.4987C58.883 71.7226 59.2675 72.0436 59.5362 72.4616C59.8049 72.8796 59.9393 73.376 59.9393 73.9508C59.9393 74.5256 59.8049 75.022 59.5362 75.44C59.2675 75.8506 58.883 76.1678 58.3829 76.3918C57.8902 76.6083 57.2968 76.7165 56.6026 76.7165H54.184L54.8334 76.0559V79.0007H53.3778ZM58.5061 79.0007L56.5242 76.1566H58.0806L60.0736 79.0007H58.5061ZM54.8334 76.2126L54.184 75.5184H56.5354C57.1773 75.5184 57.6588 75.3803 57.9798 75.1041C58.3082 74.8279 58.4725 74.4435 58.4725 73.9508C58.4725 73.4507 58.3082 73.0663 57.9798 72.7975C57.6588 72.5288 57.1773 72.3944 56.5354 72.3944H54.184L54.8334 71.6778V76.2126ZM66.2523 79.0007V72.3944H63.6546V71.1628H70.3057V72.3944H67.7079V79.0007H66.2523ZM76.907 71.1628H78.3626V79.0007H76.907V71.1628ZM72.8537 79.0007H71.3981V71.1628H72.8537V79.0007ZM77.019 75.6416H72.7305V74.3987H77.019V75.6416ZM81.8065 74.4211H85.7031V75.6192H81.8065V74.4211ZM81.9185 77.7802H86.3413V79.0007H80.4629V71.1628H86.1846V72.3832H81.9185V77.7802ZM94.72 79.1127C94.1079 79.1127 93.5443 79.0156 93.0292 78.8215C92.5216 78.62 92.0775 78.3401 91.6968 77.9818C91.3161 77.616 91.0212 77.1868 90.8122 76.6941C90.6032 76.2014 90.4987 75.664 90.4987 75.0817C90.4987 74.4995 90.6032 73.962 90.8122 73.4694C91.0212 72.9767 91.3161 72.5512 91.6968 72.1929C92.0849 71.8271 92.5365 71.5472 93.0516 71.3531C93.5667 71.1516 94.1303 71.0508 94.7424 71.0508C95.4067 71.0508 96.0039 71.159 96.5339 71.3755C97.0714 71.592 97.523 71.9092 97.8887 72.3273L96.9706 73.223C96.6645 72.917 96.3324 72.693 95.974 72.5512C95.6232 72.4019 95.235 72.3273 94.8096 72.3273C94.399 72.3273 94.0183 72.3944 93.6674 72.5288C93.3166 72.6632 93.0143 72.8535 92.7605 73.0998C92.5067 73.3462 92.3089 73.6373 92.167 73.9732C92.0327 74.3091 91.9655 74.6786 91.9655 75.0817C91.9655 75.4774 92.0327 75.8431 92.167 76.179C92.3089 76.515 92.5067 76.8098 92.7605 77.0636C93.0143 77.3099 93.3129 77.5003 93.6563 77.6347C93.9996 77.769 94.3803 77.8362 94.7984 77.8362C95.1865 77.8362 95.5598 77.7765 95.9181 77.6571C96.2838 77.5302 96.6309 77.3211 96.9594 77.03L97.788 78.1161C97.3774 78.4446 96.8997 78.6946 96.3547 78.8663C95.8173 79.0306 95.2724 79.1127 94.72 79.1127ZM96.4107 77.9258V74.9922H97.788V78.1161L96.4107 77.9258ZM103.38 79.1127C102.768 79.1127 102.204 79.0119 101.689 78.8103C101.174 78.6088 100.726 78.3289 100.346 77.9706C99.9655 77.6048 99.6705 77.1793 99.4615 76.6941C99.2525 76.2014 99.1475 75.664 99.1475 75.0817C99.1475 74.4995 99.2525 73.9658 99.4615 73.4805C99.6705 72.9879 99.9655 72.5624 100.346 72.2041C100.726 71.8383 101.174 71.5547 101.689 71.3531C102.204 71.1516 102.764 71.0508 103.369 71.0508C103.981 71.0508 104.541 71.1516 105.049 71.3531C105.564 71.5547 106.011 71.8383 106.392 72.2041C106.773 72.5624 107.068 72.9879 107.277 73.4805C107.486 73.9658 107.59 74.4995 107.59 75.0817C107.59 75.664 107.486 76.2014 107.277 76.6941C107.068 77.1868 106.773 77.6123 106.392 77.9706C106.011 78.3289 105.564 78.6088 105.049 78.8103C104.541 79.0119 103.985 79.1127 103.38 79.1127ZM103.369 77.8362C103.765 77.8362 104.13 77.769 104.466 77.6347C104.802 77.5003 105.093 77.3099 105.34 77.0636C105.586 76.8098 105.776 76.5187 105.911 76.1902C106.053 75.8543 106.123 75.4848 106.123 75.0817C106.123 74.6786 106.053 74.3129 105.911 73.9844C105.776 73.6485 105.586 73.3574 105.34 73.111C105.093 72.8572 104.802 72.6632 104.466 72.5288C104.13 72.3944 103.765 72.3273 103.369 72.3273C102.973 72.3273 102.608 72.3944 102.272 72.5288C101.943 72.6632 101.652 72.8572 101.398 73.111C101.152 73.3574 100.958 73.6485 100.816 73.9844C100.682 74.3129 100.614 74.6786 100.614 75.0817C100.614 75.4774 100.682 75.8431 100.816 76.179C100.958 76.515 101.152 76.8098 101.398 77.0636C101.645 77.3099 101.936 77.5003 102.272 77.6347C102.608 77.769 102.973 77.8362 103.369 77.8362ZM107.915 79.0007L111.442 71.1628H112.876L116.414 79.0007H114.891L111.857 71.9354H112.439L109.416 79.0007H107.915ZM109.539 77.1868L109.931 76.0447H114.163L114.555 77.1868H109.539ZM117.411 79.0007V71.1628H118.866V77.769H122.964V79.0007H117.411ZM126.489 79.1127C125.877 79.1127 125.291 79.0268 124.731 78.8551C124.171 78.676 123.727 78.4483 123.398 78.1721L123.902 77.0412C124.216 77.2875 124.604 77.4928 125.067 77.6571C125.529 77.8213 126.004 77.9034 126.489 77.9034C126.899 77.9034 127.231 77.8586 127.485 77.769C127.739 77.6794 127.926 77.56 128.045 77.4107C128.165 77.254 128.224 77.0785 128.224 76.8845C128.224 76.6456 128.138 76.4552 127.967 76.3134C127.795 76.1641 127.571 76.0484 127.295 75.9663C127.026 75.8767 126.724 75.7946 126.388 75.72C126.059 75.6453 125.727 75.5595 125.391 75.4624C125.063 75.3579 124.761 75.2273 124.484 75.0705C124.216 74.9063 123.995 74.6898 123.824 74.4211C123.652 74.1524 123.566 73.809 123.566 73.391C123.566 72.9655 123.678 72.5773 123.902 72.2265C124.134 71.8682 124.481 71.5845 124.944 71.3755C125.414 71.159 126.007 71.0508 126.724 71.0508C127.194 71.0508 127.661 71.1105 128.123 71.2299C128.586 71.3494 128.989 71.5211 129.333 71.745L128.874 72.8759C128.523 72.6669 128.161 72.5139 127.788 72.4168C127.414 72.3123 127.056 72.2601 126.713 72.2601C126.31 72.2601 125.981 72.3086 125.727 72.4056C125.481 72.5027 125.298 72.6296 125.179 72.7863C125.067 72.9431 125.011 73.1222 125.011 73.3238C125.011 73.5627 125.093 73.7567 125.257 73.906C125.429 74.0479 125.649 74.1598 125.918 74.2419C126.194 74.3241 126.5 74.4062 126.836 74.4883C127.172 74.5629 127.504 74.6488 127.832 74.7458C128.168 74.8429 128.471 74.9698 128.739 75.1265C129.016 75.2833 129.236 75.496 129.4 75.7647C129.572 76.0335 129.657 76.3731 129.657 76.7837C129.657 77.2017 129.542 77.5899 129.31 77.9482C129.086 78.299 128.739 78.5827 128.269 78.7992C127.799 79.0082 127.205 79.1127 126.489 79.1127Z" fill="#223044"/>
<path id="Vector_2" d="M4.1304 78.9997V61.0107L6.09794 62.9782H0.195312V59.3242H8.68386V78.9997H4.1304ZM15.2498 78.9997L23.1762 61.0669L24.3568 63.0345H13.7601L15.7839 60.8983V66.2388H11.7364V59.3242H27.5048V62.2756L20.1968 78.9997H15.2498Z" fill="#223044"/>
<path id="Vector_3" d="M9.6436 25.8535C4.32502 25.8535 0 21.5088 0 16.166C0 10.8232 4.32502 6.47852 9.6436 6.47852C14.9621 6.47852 19.2871 10.8232 19.2871 16.166C19.2871 21.5088 14.9621 25.8535 9.6436 25.8535ZM9.6436 8.86899C5.63978 8.86899 2.37966 12.144 2.37966 16.166C2.37966 20.188 5.63978 23.463 9.6436 23.463C13.6473 23.463 16.9075 20.188 16.9075 16.166C16.9075 12.144 13.6473 8.86899 9.6436 8.86899Z" fill="#1E3768"/>
<path id="Vector_4" d="M26.4912 25.8594C21.1727 25.8594 16.8477 21.5146 16.8477 16.1719C16.8477 10.8291 21.1727 6.48438 26.4912 6.48438C31.8098 6.48438 36.1348 10.8291 36.1348 16.1719C36.1348 21.5146 31.8098 25.8594 26.4912 25.8594ZM26.4912 8.87488C22.4875 8.87488 19.2273 12.1499 19.2273 16.1719C19.2273 20.1939 22.4875 23.4689 26.4912 23.4689C30.495 23.4689 33.7551 20.1939 33.7551 16.1719C33.7551 12.1499 30.495 8.87488 26.4912 8.87488Z" fill="#1E3768"/>
<path id="Vector_5" d="M13.0772 35.8223C7.75863 35.8223 3.43359 31.4776 3.43359 26.1348C3.43359 20.7921 7.75863 16.4473 13.0772 16.4473C18.3957 16.4473 22.7207 20.7921 22.7207 26.1348C22.7207 31.4776 18.3957 35.8223 13.0772 35.8223ZM13.0772 18.8378C9.07337 18.8378 5.81325 22.1128 5.81325 26.1348C5.81325 30.1568 9.07337 33.4318 13.0772 33.4318C17.0809 33.4318 20.3411 30.1568 20.3411 26.1348C20.3411 22.1128 17.0809 18.8378 13.0772 18.8378Z" fill="#1E3768"/>
<path id="Vector_6" d="M23.3389 35.8223C18.0204 35.8223 13.6953 31.4776 13.6953 26.1348C13.6953 20.7921 18.0204 16.4473 23.3389 16.4473C28.6575 16.4473 32.9825 20.7921 32.9825 26.1348C32.9825 31.4776 28.6575 35.8223 23.3389 35.8223ZM23.3389 18.8378C19.3351 18.8378 16.075 22.1128 16.075 26.1348C16.075 30.1568 19.3351 33.4318 23.3389 33.4318C27.3427 33.4318 30.6028 30.1568 30.6028 26.1348C30.6028 22.1128 27.3427 18.8378 23.3389 18.8378Z" fill="#1E3768"/>
<path id="Vector_7" d="M18.1514 19.375C12.8329 19.375 8.50781 15.0302 8.50781 9.68749C8.50781 4.34472 12.8329 0 18.1514 0C23.47 0 27.795 4.34472 27.795 9.68749C27.795 15.0302 23.47 19.375 18.1514 19.375ZM18.1514 2.3905C14.1477 2.3905 10.8875 5.66547 10.8875 9.68749C10.8875 13.7095 14.1477 16.9845 18.1514 16.9845C22.1552 16.9845 25.4153 13.7095 25.4153 9.68749C25.4153 5.66547 22.1552 2.3905 18.1514 2.3905Z" fill="#1E3768"/>
</g>
</svg>
